<svg width="60" height="60" viewBox="0 0 60 60" fill="none" xmlns="http://www.w3.org/2000/svg">
<g clip-path="url(#clip0_71_3)">
<path d="M48.75 24.375C48.75 29.7539 47.0039 34.7227 44.0625 38.7539L58.8984 53.6016C60.3633 55.0664 60.3633 57.4453 58.8984 58.9102C57.4336 60.375 55.0547 60.375 53.5898 58.9102L38.7539 44.0625C34.7227 47.0156 29.7539 48.75 24.375 48.75C10.9102 48.75 0 37.8398 0 24.375C0 10.9102 10.9102 0 24.375 0C37.8398 0 48.75 10.9102 48.75 24.375ZM24.375 41.25C33.6914 41.25 41.25 33.6914 41.25 24.375C41.25 15.0586 33.6914 7.5 24.375 7.5C15.0586 7.5 7.5 15.0586 7.5 24.375C7.5 33.6914 15.0586 41.25 24.375 41.25Z" fill="white"/>
</g>
<defs>
<clipPath id="clip0_71_3">
<rect width="60" height="60" fill="white"/>
</clipPath>
</defs>
</svg>
