<svg width="60" height="54" viewBox="0 0 60 54" fill="none" xmlns="http://www.w3.org/2000/svg">
<path d="M59.9792 26.6464C59.9792 28.5237 58.4167 29.9942 56.6458 29.9942H53.3125L53.3854 46.7016C53.3854 46.9832 53.3646 47.2648 53.3333 47.5464V49.2255C53.3333 51.5303 51.4688 53.3971 49.1667 53.3971H47.5C47.3854 53.3971 47.2708 53.3971 47.1563 53.3867C47.0104 53.3971 46.8646 53.3971 46.7188 53.3971H43.3333H40.8333C38.5313 53.3971 36.6667 51.5303 36.6667 49.2255V46.7225V40.0478C36.6667 38.2019 35.1771 36.7105 33.3333 36.7105H26.6667C24.8229 36.7105 23.3333 38.2019 23.3333 40.0478V46.7225V49.2255C23.3333 51.5303 21.4688 53.3971 19.1667 53.3971H16.6667H13.3438C13.1875 53.3971 13.0313 53.3867 12.875 53.3763C12.75 53.3867 12.625 53.3971 12.5 53.3971H10.8333C8.53125 53.3971 6.66667 51.5303 6.66667 49.2255V37.5449C6.66667 37.451 6.66667 37.3467 6.67708 37.2528V29.9942H3.33333C1.45833 29.9942 0 28.5341 0 26.6464C0 25.7078 0.3125 24.8735 1.04167 24.1434L27.75 0.83433C28.4792 0.104291 29.3125 0 30.0417 0C30.7708 0 31.6042 0.208583 32.2292 0.730039L58.8333 24.1434C59.6667 24.8735 60.0833 25.7078 59.9792 26.6464Z" fill="white"/>
</svg>
